<?xml version="1.0" encoding="UTF-8" standalone="no"?>
<svg
   width="100%"
   height="100%"
   viewBox="0 0 25 25"
   version="1.1"
   xml:space="preserve"
   style="fill-rule:evenodd;clip-rule:evenodd;stroke-linejoin:round;stroke-miterlimit:1.41421;"
   id="svg13"
   sodipodi:docname="logo.svg"
   inkscape:version="1.1 (c4e8f9ed74, 2021-05-24)"
   inkscape:export-filename="/home/elvessousa/Documentos/Projetos/next-intl/public/favicon.png"
   inkscape:export-xdpi="96"
   inkscape:export-ydpi="96"
   xmlns:inkscape="http://www.inkscape.org/namespaces/inkscape"
   xmlns:sodipodi="http://sodipodi.sourceforge.net/DTD/sodipodi-0.dtd"
   xmlns="http://www.w3.org/2000/svg"
   xmlns:svg="http://www.w3.org/2000/svg"
   xmlns:rdf="http://www.w3.org/1999/02/22-rdf-syntax-ns#"
   xmlns:cc="http://creativecommons.org/ns#"
   xmlns:dc="http://purl.org/dc/elements/1.1/"><metadata
     id="metadata19"><rdf:RDF><cc:Work
         rdf:about=""><dc:format>image/svg+xml</dc:format><dc:type
           rdf:resource="http://purl.org/dc/dcmitype/StillImage" /></cc:Work></rdf:RDF></metadata><defs
     id="defs17" /><sodipodi:namedview
     inkscape:snap-global="false"
     inkscape:document-rotation="0"
     pagecolor="#ffffff"
     bordercolor="#666666"
     borderopacity="1"
     objecttolerance="10"
     gridtolerance="10"
     guidetolerance="10"
     inkscape:pageopacity="0"
     inkscape:pageshadow="2"
     inkscape:window-width="1338"
     inkscape:window-height="833"
     id="namedview15"
     showgrid="false"
     inkscape:zoom="19.00703"
     inkscape:cx="16.651734"
     inkscape:cy="13.363477"
     inkscape:window-x="222"
     inkscape:window-y="54"
     inkscape:window-maximized="0"
     inkscape:current-layer="svg13"
     inkscape:pagecheckerboard="0" /><ellipse
     style="fill:#ffffff;stroke-width:1.06578"
     id="path118"
     cx="12.510427"
     cy="12.351768"
     rx="10.632299"
     ry="11.022679" /><rect
     id="globe"
     x="0.232"
     y="0.23"
     width="24"
     height="24"
     style="fill:none;" /><path
     style="color:#000000;font-style:normal;font-variant:normal;font-weight:normal;font-stretch:normal;font-size:medium;line-height:normal;font-family:sans-serif;font-variant-ligatures:normal;font-variant-position:normal;font-variant-caps:normal;font-variant-numeric:normal;font-variant-alternates:normal;font-variant-east-asian:normal;font-feature-settings:normal;font-variation-settings:normal;text-indent:0;text-align:start;text-decoration:none;text-decoration-line:none;text-decoration-style:solid;text-decoration-color:#000000;letter-spacing:normal;word-spacing:normal;text-transform:none;writing-mode:lr-tb;direction:ltr;text-orientation:mixed;dominant-baseline:auto;baseline-shift:baseline;text-anchor:start;white-space:normal;shape-padding:0;shape-margin:0;inline-size:0;clip-rule:nonzero;display:inline;overflow:visible;visibility:visible;isolation:auto;mix-blend-mode:normal;color-interpolation:sRGB;color-interpolation-filters:linearRGB;solid-color:#000000;solid-opacity:1;vector-effect:none;fill:#000000;fill-opacity:1;fill-rule:nonzero;stroke:none;stroke-width:1.885;stroke-linecap:butt;stroke-linejoin:miter;stroke-miterlimit:1.41421;stroke-dasharray:none;stroke-dashoffset:0;stroke-opacity:1;color-rendering:auto;image-rendering:auto;shape-rendering:auto;text-rendering:auto;enable-background:accumulate;stop-color:#000000;stop-opacity:1;opacity:1"
     d="M 12.5 0.70507812 C 5.9973431 0.70507801 0.70507801 5.9973431 0.70507812 12.5 C 0.70507813 19.002657 5.9973432 24.294922 12.5 24.294922 C 19.002657 24.294922 24.294922 19.002657 24.294922 12.5 C 24.294922 5.9973432 19.002657 0.70507812 12.5 0.70507812 z M 12.5 2.5898438 C 17.983927 2.5898438 22.410156 7.0160728 22.410156 12.5 C 22.410156 17.983927 17.983927 22.410156 12.5 22.410156 C 7.0160728 22.410156 2.5898438 17.983927 2.5898438 12.5 C 2.5898436 7.0160727 7.0160727 2.5898436 12.5 2.5898438 z "
     id="path864"
     shape-rendering="geometricPrecision" /><path
     style="fill:#000000;stroke-width:0.728418"
     d="m 16.701681,20.20731 c -0.06433,0.0345 -0.06072,0.04845 0.0037,0.01542 a 0.16481438,0.16735416 0 0 0 0.0506,-0.0345 c 0,-0.01175 -0.0014,-0.01028 -0.05421,0.01908 z m 0.128671,-0.06899 c -0.03036,0.02421 -0.03036,0.02569 0.0066,0.0067 0.02024,-0.01028 0.03759,-0.02202 0.03759,-0.02569 0,-0.01395 -0.0086,-0.01028 -0.04409,0.01908 z m 0.08458,-0.05211 c -0.03036,0.02421 -0.03036,0.02569 0.0066,0.0067 0.02024,-0.01028 0.03759,-0.02202 0.03759,-0.02569 0,-0.01395 -0.0086,-0.01028 -0.04409,0.01908 z m 0.08458,-0.05138 c -0.03036,0.02421 -0.03036,0.02569 0.0066,0.0067 0.02024,-0.01028 0.03759,-0.02203 0.03759,-0.02569 0,-0.01395 -0.0086,-0.01028 -0.04409,0.01908 z m 0.117105,-0.07707 c -0.05928,0.03817 -0.07808,0.06386 -0.0253,0.0345 0.03759,-0.02203 0.09831,-0.06899 0.08819,-0.07046 a 0.33685746,0.34204844 0 0 0 -0.06289,0.03596 z M 11.931461,3.6950322 c -0.03759,0.0037 -0.15614,0.01541 -0.263125,0.02422 -2.4635414,0.225341 -4.7716656,1.575184 -6.233309,3.650229 A 8.5848052,8.717097 0 0 0 3.9039883,11.217893 c -0.069395,0.483713 -0.07807,0.626845 -0.07807,1.283049 0,0.656204 0.00868,0.798602 0.07807,1.283048 0.4713112,3.307447 2.7895556,6.086407 5.933317,7.116223 0.5631177,0.184237 1.1565937,0.309752 1.8310307,0.385355 0.263125,0.02936 1.398754,0.02936 1.661879,0 1.164544,-0.130654 2.151984,-0.423524 3.124968,-0.927789 0.148911,-0.07781 0.177825,-0.09835 0.157584,-0.115239 a 167.51068,170.09203 0 0 1 -1.412488,-1.923103 l -1.387187,-1.902553 -1.737779,-2.611606 a 240.0001,243.6985 0 0 0 -1.750069,-2.610137 c -0.0066,-0.0015 -0.01374,1.159001 -0.01663,2.575639 -0.0051,2.480953 -0.0066,2.580778 -0.03759,2.639499 a 0.30649692,0.31122003 0 0 1 -0.148911,0.156343 c -0.05421,0.0279 -0.101925,0.03303 -0.3578217,0.03303 H 9.4708107 l -0.07807,-0.04991 a 0.31950858,0.32443221 0 0 1 -0.1134901,-0.12552 l -0.03542,-0.07781 0.00362,-3.452047 0.00506,-3.4535148 0.05277,-0.0668 a 0.46046825,0.46756406 0 0 1 0.1257723,-0.104952 c 0.069395,-0.0345 0.096865,-0.03817 0.3903504,-0.03817 0.3462557,0 0.4033617,0.01394 0.4937207,0.113771 a 337.45744,342.65766 0 0 1 2.092709,3.2010148 c 1.126231,1.73373 2.665221,4.100911 3.422067,5.263583 l 1.373452,2.112479 0.0694,-0.04624 a 8.920217,9.0576775 0 0 0 1.781875,-1.587663 8.6310689,8.7640735 0 0 0 2.041385,-4.502414 c 0.0694,-0.483712 0.07807,-0.626844 0.07807,-1.283049 0,-0.656203 -0.0086,-0.798602 -0.07807,-1.283047 C 20.624697,7.9119142 18.306452,5.1329542 15.16269,4.1031392 a 9.0734653,9.2132875 0 0 0 -1.805729,-0.383885 c -0.162645,-0.01688 -1.283817,-0.03597 -1.424054,-0.02202 z m 3.550738,5.327441 a 0.34047181,0.34571848 0 0 1 0.17132,0.203321 c 0.01373,0.04478 0.01662,1.0019228 0.01373,3.1591758 l -0.0051,3.096052 -0.537816,-0.83677 -0.539261,-0.836771 v -2.250473 c 0,-1.454807 0.0066,-2.2724938 0.01662,-2.3121298 a 0.34986912,0.35526061 0 0 1 0.167706,-0.217267 c 0.0694,-0.03596 0.09469,-0.03963 0.361435,-0.03963 0.250835,0 0.294931,0.0037 0.351315,0.0345 z"
     id="path19" /></svg>
